<?xml version="1.0" standalone="no"?>
<!DOCTYPE svg PUBLIC "-//W3C//DTD SVG 1.1//EN" "http://www.w3.org/Graphics/SVG/1.1/DTD/svg11.dtd">
<svg xmlns="http://www.w3.org/2000/svg" width="1037" height="488" viewBox="0 0 1037 488"><path fill-rule="evenodd" d="M492.991 50.615c-67.213 46.4-73.527 50.531-75.422 49.348-3.46-2.161-70.949-58.667-88.898-74.431-9.256-8.129-17.064-15.391-17.35-16.138-.361-.94-1.042-1.078-2.217-.449C304.815 11.24 222.168 71.684 119 147.977 17.158 223.29 1 235.334 1.346 235.68S13.885 230.125 104 185.998c26.125-12.793 55.6-27.199 65.5-32.014s42.951-20.97 73.446-35.901 56.07-26.907 56.832-26.615 24.976 16.359 53.806 35.702l52.418 35.17-52.549 31.448c-28.902 17.297-52.357 31.641-52.122 31.877.486.485 2.738.075 94.169-17.151 36.85-6.943 76.675-14.415 88.5-16.605 11.825-2.189 22.34-4.321 23.367-4.737 1.429-.578-5.679-4.855-30.274-18.214-17.677-9.602-31.343-17.565-30.367-17.695 1.859-.248 29.173-2.777 95.274-8.82 21.725-1.986 39.675-3.785 39.888-3.998s-3.687-21.887-8.669-48.164c-4.981-26.277-8.967-47.866-8.858-47.975s35.96 25.446 79.669 56.79c163.866 117.508 190.504 136.583 191.799 137.341.88.515 20.233-11.82 57.224-36.472l55.895-37.251 11.276 8.637c6.202 4.75 25.838 19.915 43.635 33.7 17.798 13.785 32.5 24.923 32.672 24.751s-5.645-7.285-12.928-15.807L980.027 163c-16.683-19.525-30.607-35.423-30.942-35.33-.334.094-29.104 17.33-63.932 38.301-42.007 25.294-63.717 37.829-64.489 37.233-5.832-4.498-250.673-199.952-252.241-201.362-2.06-1.85-2.713-1.428-75.432 48.773m99.483 39.537c.903 3.774 11.518 61.245 11.522 62.381.003.633-14.895 2.372-38.496 4.493-21.175 1.903-38.5 3.697-38.5 3.988s16.142 9.396 35.87 20.235l35.87 19.707 76.281 1.538c41.955.846 76.441 1.377 76.637 1.181.349-.349-157.076-114.84-158.844-115.523-.496-.191-.649.709-.34 2M245 133.313c-24.475 12.203-60.475 30.061-80 39.685-40.532 19.977-36.452 17.885-35.917 18.415.229.227 25.842.9 56.917 1.496s65.672 1.352 76.882 1.682c12.005.352 20.637.221 21-.32.34-.506 15.806-10.11 34.368-21.343s33.746-20.65 33.74-20.926c-.018-.932-59.942-41.003-61.222-40.939-.697.035-21.293 10.048-45.768 22.25m680.76 62.407c-8.658 5.848-15.617 10.756-15.467 10.906s13.984.573 30.74.939c26.578.58 30.276.481 28.967-.78-2.069-1.993-27.703-21.795-28.144-21.742-.196.024-7.439 4.829-16.096 10.677m-375.971.086c.866 12.071-4.286 22.012-26.79 51.694-21.566 28.444-27.949 42.276-27.984 60.645-.027 13.616 5.672 26.416 15.194 34.13 3.863 3.129 9.859 6.725 11.213 6.725.287 0-.63-2.137-2.038-4.75-2.238-4.152-2.506-5.651-2.129-11.905.728-12.043 5.86-21.293 28.214-50.845 6.657-8.8 13.774-18.759 15.817-22.131 8.118-13.4 11.377-28.17 8.71-39.478-2.465-10.45-11.234-24.391-17.666-28.085l-2.95-1.694zm31.331 55.963c-3.354 10.941-10.087 21.282-34.663 53.231-9.548 12.413-13.852 21.588-14.272 30.427-.466 9.806 2.243 14.932 9.991 18.904 7.729 3.962 15.17 4.478 25.877 1.792 20.23-5.074 33.891-16.63 38.977-32.971 2.093-6.727 3.658-20.152 2.347-20.152-.484 0-1.995 2.102-3.358 4.67-3.365 6.343-11.151 14.666-18.194 19.449-3.204 2.175-5.825 3.754-5.825 3.508s1.861-3.731 4.135-7.745c5.616-9.91 9.341-18.408 12.473-28.456 2.262-7.253 2.569-9.728 2.194-17.68-.36-7.649-.924-10.196-3.261-14.746-3.597-7.004-6.806-11.202-11.017-14.414l-3.341-2.548zM1.244 247.25c.226.688 2.029 1.388 4.007 1.556 6.413.545 5.988-2.689 5.85 44.444-.097 33.345-.182 34.831-2.101 36.75-1.1 1.1-3.163 2-4.583 2-1.546 0-2.425.476-2.189 1.184.521 1.562 33.979 1.695 34.498.137.192-.576-1.564-1.304-3.903-1.618-2.362-.317-4.824-1.352-5.538-2.328-.993-1.358-1.285-10.347-1.285-39.566V252h5.132c4.707 0 5.484.353 9.398 4.267 5.082 5.082 6.918 10.716 6.178 18.958-.839 9.343-7.013 16.762-13.958 16.771-1.776.003-2.75.535-2.75 1.504 0 1.102 1.147 1.5 4.322 1.5 9.634 0 18.944-5.841 23.18-14.543 2.964-6.088 3.275-18.014.606-23.245-2.32-4.548-6.847-8.346-12.007-10.074-4.996-1.672-45.41-1.572-44.857.112m152.423-.583c-.367.366-.668 11.279-.67 24.25-.004 28.166-1.019 57.501-2.048 59.166-.407.659-2.382 1.472-4.388 1.807-2.006.336-3.628 1.06-3.604 1.61.026.619 5.572 1 14.543 1 8.903 0 14.556-.386 14.646-1 .08-.55-1.518-1.27-3.551-1.601s-4.186-1.09-4.783-1.687c-1.438-1.438-2.939-26.86-2.59-43.852l.278-13.528 12.388 13.834C193.184 308.215 220.041 336 221.575 336c.763 0 1.597-1.012 1.853-2.25.257-1.238.649-19.369.873-40.292.422-39.502.746-42.458 4.652-42.458 2.582 0 5.047-1.029 5.047-2.107 0-1.168-28.713-1.166-29.435.002-.708 1.146 1.79 2.105 5.482 2.105 4.952 0 5.278 1.861 5.693 32.5l.379 28-3.728-4c-14.587-15.653-46.084-50.105-50.512-55.25-5.144-5.976-6.736-7.059-8.212-5.583m92.431 4.497c-1.626 8.044-1.75 12.065-.385 12.548.667.237 1.495-.694 1.84-2.067 1.205-4.8 3.667-5.912 14.194-6.413 14.538-.693 13.469-3.843 13.077 38.526-.352 38.003-.39 38.242-5.946 38.242-1.892 0-2.878.514-2.878 1.5 0 1.276 2.611 1.5 17.5 1.5s17.5-.224 17.5-1.5c0-1.064-1.09-1.504-3.75-1.515-2.062-.009-4.363-.404-5.112-.879-2.466-1.562-3.05-9.233-3.094-40.633-.052-36.776-.389-35.486 9.263-35.449 11.728.045 16.693 2.326 16.693 7.667 0 1.386.6 2.309 1.5 2.309 1.219 0 1.5-1.639 1.5-8.75l.001-8.75H285.25c-18.012 0-33.948-.376-35.411-.836-2.581-.811-2.694-.674-3.741 4.5m185.536-3.578c-17.469 4.229-28.779 16.249-32.237 34.263-3.984 20.751 5.22 40.269 23.103 48.995 10.434 5.092 23.764 6.883 37.369 5.023 9.869-1.35 11.433-2.436 12.785-8.873 2.489-11.858.907-18.612-2.217-9.459-2.795 8.189-10.402 11.942-22.908 11.301-14.313-.733-26.617-10.98-30.941-25.768-2.072-7.088-2.086-22.662-.026-30.002 3.716-13.241 12.92-20.177 26.845-20.232 16.192-.064 24.594 4.769 26.39 15.18 1.284 7.442 2.682 4.804 3.434-6.483.403-6.032.4-11.3-.006-11.706-1.355-1.355-19.624-3.818-27.725-3.738-4.4.044-10.64.719-13.866 1.499m356.006-.812c-.263.426-7.085 18.313-15.16 39.75s-15.401 40.201-16.28 41.697c-1.568 2.672-5.691 4.779-9.349 4.779-1.721 0-2.76 1.937-1.101 2.052 1.031.071 25.45.076 27 .005 2.635-.12 1.103-2.057-1.628-2.057-5.689 0-5.888-1.948-1.516-14.82l3.968-11.68h25.699l4.417 12.474c4.085 11.535 4.289 12.568 2.71 13.723-1.381 1.01-1.439 1.345-.303 1.756 2.9 1.05 24.477 1.259 26.903.261 2.284-.94 2.328-1.064.5-1.437-6.448-1.314-8.619-2.624-10.949-6.606-1.343-2.294-6.979-16.096-12.525-30.671-17.778-46.72-19.126-50-20.543-50-.751 0-1.58.348-1.843.774m-688.967.975c-19.123.221-24.735.569-24.423 1.519.222.677 1.943 1.381 3.823 1.564 1.88.182 3.983.8 4.673 1.372 1.813 1.505 1.817 75.68.004 78.043-.687.896-2.6 1.769-4.25 1.941s-3 .762-3 1.312c0 .633 9.216 1.098 25.114 1.267 20.287.215 25.332.004 26.25-1.103 1.662-2.002 2.763-16.664 1.251-16.664-.648 0-1.431.788-1.74 1.75-2.689 8.366-4.162 9.25-15.422 9.25C99.024 328 99 327.96 99 308v-16h8.566c4.711 0 9.384.438 10.383.973 1 .535 2.116 2.56 2.48 4.5.682 3.637 2.523 4.88 2.633 1.777.034-.962.392-5.043.795-9.068s.376-7.538-.06-7.808c-.437-.269-1.794.211-3.018 1.068-1.645 1.153-4.767 1.558-12.002 1.558H99v-30h8.435c10.307 0 13.305 1.001 14.121 4.715 1.753 7.988 3.055 6.535 3.996-4.465.577-6.737.453-8.208-.673-8.018-.758.127-12.551.36-26.206.517m255-.008c-19.121.227-24.735.578-24.422 1.527.223.677 2.159 1.457 4.303 1.732 6.558.841 6.556.827 6.232 41.597-.311 39.271-.331 39.403-5.908 39.403-1.892 0-2.878.514-2.878 1.5 0 1.294 3.495 1.5 25.453 1.5h25.453l1.041-3.75c1.31-4.717 1.371-14.25.092-14.25-.529 0-1.442 1.784-2.029 3.963-1.532 5.69-4.027 7.04-12.983 7.023-13.88-.025-14.027-.246-14.027-21.033V292h8.566c4.711 0 9.417.455 10.457 1.012s2.185 2.582 2.545 4.5c.651 3.468 2.141 4.625 2.883 2.238.214-.687.607-4.962.874-9.5.378-6.418.192-8.25-.836-8.25-.727 0-1.509.563-1.738 1.25-.29.872-3.789 1.352-11.583 1.588l-11.168.339V255h9.277c10.696 0 13.419 1.211 13.911 6.186.551 5.58 2.601 4.409 3.291-1.879 1.164-10.607 1.118-11.744-.479-11.804-.825-.031-12.672.076-26.327.238m285.786 1.626c-5.203 2.423-9.918 7.111-11.644 11.577-.543 1.406-.994 5.159-1.001 8.341-.023 9.386 3.279 14.763 16.845 27.428 6.349 5.927 12.173 11.994 12.942 13.482 2.034 3.933 1.742 10.73-.627 14.615-3.795 6.225-14.596 8.035-20.838 3.491-3.235-2.354-7.136-9.742-7.136-13.513 0-1.733-.534-2.788-1.41-2.788-1.047 0-1.592 2.181-2.116 8.47-1.012 12.149-.603 13.146 6.198 15.123 7.63 2.218 20.263 1.56 25.896-1.348 12.667-6.539 17.133-21.519 10.421-34.95-2.953-5.911-6.453-9.639-19.814-21.112-7.576-6.504-9.59-10.054-8.847-15.596.814-6.07 5.137-9.587 11.783-9.587 3.019 0 6.268.701 8.006 1.728 2.919 1.725 6.883 8.397 6.883 11.588 0 2.128 1.589 2.196 2.393.102.334-.87.607-5.124.607-9.453v-7.871l-3.75-1.041c-2.062-.573-7.35-1.04-11.75-1.038-6.29.004-9.077.506-13.041 2.352m44.203-1.592c-.234.399-1.003 4.003-1.71 8.009-.932 5.288-.984 7.584-.187 8.381s1.505.125 2.582-2.453c2.118-5.069 4.237-5.826 15.378-5.498 9.234.272 9.784.411 10.983 2.786 1.373 2.719 1.652 42.357.436 61.788-.693 11.071-1.268 12.168-6.394 12.197-2.651.014-4.045 1.947-1.5 2.08 1.246.065 32.576.038 34-.03.413-.019.75-.426.75-.905 0-.478-2.064-1.103-4.587-1.387s-5.11-1.04-5.75-1.679c-1.664-1.663-2.213-71.696-.577-73.667.813-.98 3.517-1.397 9.069-1.397 9.598 0 14.838 1.833 14.86 5.199.009 1.266.459 2.976 1 3.801 1.767 2.691 2.953-.904 2.97-9l.016-7.5H724.25c-16.912 0-32.868-.326-35.456-.725s-4.898-.399-5.132 0m311.086.589c-10.094 3.772-15.336 11.725-14.51 22.016.814 10.133 5.575 17.271 18.843 28.248 9.83 8.132 11.919 11.393 11.919 18.605 0 6.386-2.334 10.173-7.636 12.388-4.581 1.914-8.769 1.723-13.338-.608-4.919-2.509-6.657-5.005-8.159-11.718-1.842-8.231-3.329-5.996-3.652 5.493l-.284 10.125 3.284 1.719c2.009 1.052 6.455 1.893 11.447 2.165 10.655.58 17.831-1.569 23.453-7.025 5.279-5.122 7.149-9.768 7.166-17.795.023-11.365-4.429-18.255-20.408-31.583-9.693-8.085-12.747-13.532-10.95-19.53 1.504-5.02 5.864-7.857 12.077-7.857 7.369 0 12.447 4.119 13.924 11.294 1.096 5.324 2.578 2.7 3.125-5.535.389-5.861.186-8.677-.697-9.678-1.82-2.061-20.606-2.592-25.604-.724m-156.194.416c-1.298 1.298-.362 2.22 2.255 2.22 1.545 0 3.682.638 4.75 1.419 1.809 1.322 1.965 3.038 2.294 25.25.194 13.107.033 30.259-.356 38.115-.761 15.354-1.427 17.216-6.152 17.216-1.381 0-2.362.449-2.178.998.207.621 10.143 1.093 26.313 1.25l25.979.252 1.22-2.531c.671-1.393 1.53-5.555 1.909-9.25.58-5.659.447-6.719-.839-6.719-.939 0-1.768 1.285-2.153 3.34-.345 1.837-1.764 4.409-3.155 5.715-2.229 2.094-3.499 2.38-10.735 2.41-11.427.049-13.385-.649-14.656-5.223-.618-2.228-1.041-16.697-1.044-35.769-.007-36.072.066-36.473 6.634-36.473 2.377 0 3.391-.408 3.11-1.25-.308-.923-4.628-1.286-16.53-1.387-8.862-.075-16.362.112-16.666.417m65.937.063c-1.011 1.01.828 2.157 3.457 2.157 1.557 0 3.802.787 4.989 1.75 2.152 1.745 2.157 1.859 1.861 39.582-.284 36.11-.386 37.896-2.239 39.25-1.068.78-3.018 1.418-4.333 1.418s-2.237.467-2.047 1.037c.433 1.298 48.741 2.366 50.645 1.12 1.8-1.178 3.767-15.966 2.317-17.416-.767-.767-1.255-.526-1.702.842-2.907 8.896-5.091 10.417-14.955 10.417-6.39 0-10.184-1.101-11.719-3.4-.404-.605-.741-8.468-.75-17.472L930 291.755l9.127.437c10.043.48 11.873 1.559 11.873 6.999 0 1.698.536 2.809 1.357 2.809.991 0 1.539-2.43 2.038-9.033.775-10.264.312-11.918-2.596-9.282-1.644 1.49-3.733 1.815-11.651 1.815-5.306 0-9.76-.337-9.898-.75s-.25-7.275-.25-15.25V255l7.25.056c10.482.082 14.024 1.527 15.176 6.194.925 3.742 2.287 4.866 3.029 2.5.215-.687.667-4.4 1.003-8.25l.612-7-26.072-.047c-14.339-.025-26.268.15-26.507.39m-122.846 35.399c-2.555 7.307-4.645 13.616-4.645 14.022 0 .405 4.275.736 9.5.736 5.35 0 9.5-.416 9.5-.952 0-1.084-8.749-26.13-9.33-26.712-.209-.208-2.47 5.599-5.025 12.906m-3.321 73.396c-5.958 2.111-12.839 8.526-14.881 13.872-3.372 8.829-1.044 14.844 12.961 33.49 7.604 10.124 9.076 12.622 7.742 13.141-24.557 9.567-39.179 20.03-46.227 33.078-3.009 5.57-3.394 7.148-3.406 13.935-.012 7.035.234 7.965 3.037 11.5 4.283 5.401 11.666 8.886 21.899 10.339 6.69.949 9.668.948 13.792-.005 13.507-3.123 27.011-13.039 32.206-23.648 2.258-4.611 2.842-7.163 2.822-12.327-.043-10.992-5-20.415-22.378-42.541C772.913 391.948 770 386.818 770 380.484c0-5.617 1.756-9.185 6.626-13.461 4.927-4.326 9.704-6.22 15.568-6.175 5.651.044 6.206-1.365 1.338-3.399-4.319-1.805-9.773-1.737-15.208.189m-302.213 5.888c-1.863.822-7.083 5.202-11.599 9.734-9.092 9.125-15.805 19.615-20.116 31.437-2.132 5.844-3.036 7.266-4.298 6.759-.879-.353-4.073-.86-7.098-1.127-4.922-.434-6.07-.135-10.924 2.843-6.058 3.716-11.426 10.702-13.152 17.112-.899 3.336-.815 4.722.447 7.367 3.077 6.452 13.431 9.012 22.27 5.504 2.827-1.122 5.415-1.766 5.75-1.431s.612 2.222.615 4.193c.008 5.515 1.839 10.878 4.872 14.273 3.463 3.875 9.284 4.255 13.977.913 3.337-2.376 10.459-10.448 14.443-16.369l2.534-3.766 2.334 4.182c4.272 7.656 14.633 10.264 24.06 6.058 5.888-2.627 17.774-16.101 17.774-20.149 0-.532 1.125-2.093 2.5-3.468 2.979-2.979 3.195-4.591.614-4.591-1.265 0-3.212 2.224-5.908 6.75-6.682 11.212-18.396 21.25-24.799 21.25-6.782 0-10.979-9.891-8.806-20.753.535-2.675 1.091-3.07 5.093-3.619 17.274-2.367 34.672-20.602 29.276-30.683-1.378-2.576-6.156-4.945-9.97-4.945-10.809 0-27.858 20.264-31.436 37.364-1.351 6.456-4.428 11.55-14.407 23.849-8.124 10.013-11.871 11.109-14.715 4.303-1.7-4.068-2.939-17.541-1.749-19.018.444-.551 4.15-3.701 8.237-7 14.384-11.613 29.251-31.181 34.193-45.005 2.912-8.147 3.089-17.726.377-20.397-2.808-2.766-6.432-3.314-10.389-1.57m130.13.509c-3.711 1.491-10.437 9.165-15.401 17.573-9.934 16.827-16.506 37.437-17.533 54.989-1.535 26.233 7.704 40.912 22.267 35.375 6.153-2.34 13.569-10.861 20.599-23.67l3.956-7.208 3.33 1.588c1.936.923 4.367 1.327 5.807.966 2.815-.707 9.342-5.193 16.477-11.325l4.86-4.177-2.276 6.677c-2.839 8.331-2.902 12.176-.254 15.542 3.751 4.769 8.392 3.467 14.488-4.063 2.138-2.641 3.111-4.184 2.163-3.43-.948.755-1.724.923-1.724.373 0-1.508 2.569-3.332 3.502-2.486.45.407.529.233.175-.387-.7-1.225 6.161-10.867 7.079-9.949.74.74 3.244-1.373 3.244-2.737 0-.587-.712-.195-1.582.873-1.35 1.657-1.501 1.685-1.031.191.92-2.927-.723-1.883-3.887 2.469-3.4 4.675-15.102 16.482-17.75 17.909-1.356.73-1.775.541-1.861-.843-.371-5.987 2.911-15.695 8.572-25.353 1.946-3.322 3.539-6.357 3.539-6.745s-.896-1.265-1.991-1.949c-1.793-1.12-2.914-.384-11.25 7.374-12.616 11.742-18.904 16.375-23.162 17.066-3.445.559-3.597.46-3.597-2.351 0-6.378 10.685-18.417 20.305-22.88 7.758-3.599 15.002-4.995 19.211-3.703 3.893 1.194 4.441.432 1.562-2.174-7.071-6.399-27.418.284-38.839 12.757-4.233 4.621-5.87 7.616-8.228 15.045C612.965 448.12 596.392 470 590.782 470c-3.63 0-7.394-5.092-8.877-12.009-1.157-5.391-.796-27.921.496-31.008.4-.958 2.066-1.555 4.516-1.62 2.419-.063 6.088-1.36 9.733-3.439 11.47-6.544 20.444-17.072 24.431-28.659 2.446-7.109 2.588-19.053.284-23.908-2.596-5.471-9.078-7.752-15.124-5.322m-128.866 4.809c-4.471 3.238-12.257 11.671-16.585 17.961-7.008 10.186-16.671 35.471-15.611 40.85.423 2.144 16.997-15.144 23.914-24.945C477.671 390.556 483 378.166 483 370.378c0-4.492-1.12-4.798-5.625-1.534m129.691 2.916c-7.438 7.755-18.929 32.037-22.473 47.49-.859 3.746.713 3.559 7.42-.883 11.053-7.32 18.545-16.524 22.071-27.116 3.632-10.909 2.867-24.251-1.39-24.251-.584 0-3.116 2.142-5.628 4.76m256.154 23.657c-9.325 6.865-19.022 21.775-21.339 32.811-.608 2.9-1.731 5.982-2.494 6.851s-1.387 2.106-1.387 2.75-.45 1.171-1 1.171-1 .417-1 .927c0 2.846-15.074 23.073-17.196 23.073-2.119 0 .26-28.986 3.747-45.649.558-2.67.323-3.256-1.547-3.85-1.213-.385-2.592-.313-3.064.159-2.804 2.804-7.369 32.125-6.418 41.23.722 6.913 3.516 11.11 7.398 11.11 2.495 0 8.743-5.363 9.678-8.308.381-1.201 1.415-2.734 2.298-3.406.882-.672 1.288-1.237.902-1.254-.386-.018.417-1.24 1.786-2.717s2.274-3.244 2.011-3.927.204-1.806 1.036-2.496c.831-.69 2.141-2.636 2.91-4.324s1.339-2.393 1.268-1.568c-.197 2.281 2.065 7.221 4.508 9.845 5.727 6.151 15.257 7.141 23.844 2.476 5.03-2.732 13.837-12.323 13.838-15.071.001-.687.426-1.25.945-1.25.57 0 .706 4.194.344 10.595-.481 8.5-.322 10.77.806 11.484 3.784 2.396 4.655 1.177 9.457-13.232 6.104-18.316 9.153-24.193 16.622-32.039 3.854-4.048 4.824-3.56 4.851 2.442.043 9.398 2.013 14.682 5.495 14.735 1.262.019.851-13.945-.565-19.175-1.087-4.017-3.478-5.397-7.572-4.37-5.456 1.37-16.469 16.047-20.883 27.832-.983 2.625-1.945 4.616-2.136 4.424-.34-.339.875-14.482 2.219-25.839.622-5.257.514-5.692-1.582-6.357-3.075-.976-3.566.137-5.026 11.378-1.434 11.046-2.984 14.627-9.961 23.01-7.892 9.484-17.397 14.056-22.403 10.776-3.919-2.568-6.093-9.676-5.014-16.392l.904-5.631 5.866-1.324c15.64-3.529 28.634-15.414 28.634-26.188 0-5.402-4.273-9.129-10.467-9.129-3.528 0-5.406.804-10.313 4.417m-41.849-.942c-.943 2.459.337 8.545 2.241 10.649 3.204 3.54 4.266 2.364 3.845-4.257-.441-6.919-.207-6.388-3.212-7.312-1.604-.493-2.434-.227-2.874.92m-318.659 2.592c-7.213 4.778-15.66 15.8-18.132 23.66-.689 2.191-.637 2.204 3.207.848 14.591-5.148 23.763-14.467 23.019-23.387-.4-4.795-2.175-5.041-8.094-1.121M874 394.717c-3.916 1.459-11.043 7.76-14.693 12.989-4.581 6.563-8.68 14.254-7.974 14.96.726.727 10.672-3.699 15.262-6.79 8.622-5.808 13.959-15.104 11.407-19.872-1.116-2.086-1.514-2.214-4.002-1.287m54.042 16.533c-.687 3.988-1.601 15.35-2.029 25.25-.692 15.968-.597 18.144.834 19.279 3.278 2.597 4.545.883 8.715-11.788 5.331-16.199 8.542-22.81 14.632-30.129 4.858-5.837 7.512-7.053 7.101-3.254-.113 1.04.242 4.817.789 8.392.903 5.909 2.648 9 5.08 9 1.318 0-.285-19.315-1.805-21.75-2.221-3.557-6.309-2.927-11.678 1.8-4.95 4.357-12.464 15.658-15.257 22.95-.949 2.475-2.01 4.83-2.359 5.234-.698.81 1.44-23.126 2.413-27.002.697-2.778-.923-5.232-3.454-5.232-1.367 0-1.994 1.524-2.982 7.25m68.576-5.138c-13.604 3.194-29.665 18.189-29.798 27.82-.063 4.627 1.702 7.213 6.193 9.074 4.182 1.731 8.508-.035 16.655-6.8 3.779-3.138 7.608-6.289 8.508-7.001 1.288-1.019 1.13-.06-.746 4.5-3.025 7.357-3.203 14.522-.43 17.295 3.086 3.086 7.37 2.564 11.313-1.379 4.341-4.341 7.788-9.187 7.056-9.918-.314-.314.694-2.23 2.24-4.257s2.988-3.156 3.203-2.51c.216.647 1.471-.287 2.79-2.074 3.135-4.25 3.085-5.212-.071-1.362-1.352 1.65-2.475 2.464-2.495 1.809s.414-1.469.964-1.809 1-1.098 1-1.685c0-.586-1.575.653-3.5 2.755s-3.5 4.177-3.5 4.612c0 1.104-8.82 9.849-12.754 12.646-2.971 2.113-3.312 2.164-3.916.589-1.083-2.822 1.322-10.245 7.014-21.648 5.151-10.32 5.286-10.794 3.524-12.389-1.736-1.571-2.338-1.188-11.388 7.231C986.955 432.332 977.735 439 974.436 439c-2.095 0-2.436-.468-2.436-3.337 0-3.957 5.984-12.888 11.405-17.023 8.995-6.86 22.858-11.034 28.931-8.71 4.133 1.582 3.031-.929-1.396-3.178-3.709-1.885-8.168-2.084-14.322-.64M431 415.592c-9.322 4.032-17.734 18.541-14.088 24.3 2.118 3.344 20.229-2.61 21.661-7.122.335-1.056.412-2.118.17-2.36-.241-.241.121-3.695.805-7.675 1.324-7.703.964-8.728-3.048-8.681-1.1.014-3.575.705-5.5 1.538m344.924 11.192c-5.252 2.674-11.77 6.384-14.486 8.244-19.706 13.498-27.099 34.038-15.817 43.944 4.441 3.9 10.25 5.342 19.404 4.816 9.253-.53 17.876-4.68 25.514-12.276 12.194-12.129 12.883-25.662 2.219-43.533-1.966-3.295-4.07-5.594-5.278-5.768-1.104-.158-6.304 1.899-11.556 4.573m247.714-2.284c-.316.825-.139 1.5.393 1.5.533 0 .969-.675.969-1.5s-.177-1.5-.393-1.5-.652.675-.969 1.5M674.5 425c-.34.55-.168 1 .382 1s1.278-.45 1.618-1 .168-1-.382-1-1.278.45-1.618 1m336.446 18.658c-2.732 2.899-2.896 3.262-.792 1.75 2.295-1.65 5.458-5.408 4.551-5.408-.172 0-1.863 1.646-3.759 3.658m-350.074 2.092c-1.243 1.586-1.208 1.621.378.378 1.666-1.307 2.195-2.128 1.372-2.128-.207 0-.995.788-1.75 1.75"/></svg>